<svg xmlns="http://www.w3.org/2000/svg" version="1.1" xmlns:xlink="http://www.w3.org/1999/xlink" xmlns:svgjs="http://svgjs.com/svgjs" width="1000" height="1000" preserveAspectRatio="none" viewBox="0 0 1000 1000"><g mask="url(&quot;#SvgjsMask1017&quot;)" fill="none"><path d="M24.48 -9.57L89.43 27.93L89.43 102.93L24.48 140.43L-40.47 102.93L-40.47 27.93zM24.48 215.43L89.43 252.93L89.43 327.93L24.48 365.43L-40.47 327.93L-40.47 252.93zM89.43 327.93L154.39 365.43L154.39 440.43L89.43 477.93L24.48 440.43L24.48 365.43zM24.48 665.43L89.43 702.93L89.43 777.93L24.48 815.43L-40.47 777.93L-40.47 702.93zM89.43 1002.93L154.39 1040.43L154.39 1115.43L89.43 1152.93L24.48 1115.43L24.48 1040.43zM219.34 327.93L284.3 365.43L284.3 440.43L219.34 477.93L154.39 440.43L154.39 365.43zM219.34 777.93L284.3 815.43L284.3 890.43L219.34 927.93L154.39 890.43L154.39 815.43zM284.3 -9.57L349.25 27.93L349.25 102.93L284.3 140.43L219.34 102.93L219.34 27.93zM284.3 215.43L349.25 252.93L349.25 327.93L284.3 365.43L219.34 327.93L219.34 252.93zM284.3 440.43L349.25 477.93L349.25 552.93L284.3 590.43L219.34 552.93L219.34 477.93zM349.25 777.93L414.2 815.43L414.2 890.43L349.25 927.93L284.3 890.43L284.3 815.43zM284.3 890.43L349.25 927.93L349.25 1002.93L284.3 1040.43L219.34 1002.93L219.34 927.93zM414.2 -9.57L479.16 27.93L479.16 102.93L414.2 140.43L349.25 102.93L349.25 27.93zM479.16 102.93L544.11 140.43L544.11 215.43L479.16 252.93L414.2 215.43L414.2 140.43zM479.16 327.93L544.11 365.43L544.11 440.43L479.16 477.93L414.2 440.43L414.2 365.43zM414.2 440.43L479.16 477.93L479.16 552.93L414.2 590.43L349.25 552.93L349.25 477.93zM479.16 777.93L544.11 815.43L544.11 890.43L479.16 927.93L414.2 890.43L414.2 815.43zM544.11 -9.57L609.06 27.93L609.06 102.93L544.11 140.43L479.16 102.93L479.16 27.93zM609.06 327.93L674.02 365.43L674.02 440.43L609.06 477.93L544.11 440.43L544.11 365.43zM544.11 440.43L609.06 477.93L609.06 552.93L544.11 590.43L479.16 552.93L479.16 477.93zM544.11 665.43L609.06 702.93L609.06 777.93L544.11 815.43L479.16 777.93L479.16 702.93zM738.97 327.93L803.93 365.43L803.93 440.43L738.97 477.93L674.02 440.43L674.02 365.43zM738.97 552.93L803.93 590.43L803.93 665.43L738.97 702.93L674.02 665.43L674.02 590.43zM674.02 890.43L738.97 927.93L738.97 1002.93L674.02 1040.43L609.06 1002.93L609.06 927.93zM738.97 1002.93L803.93 1040.43L803.93 1115.43L738.97 1152.93L674.02 1115.43L674.02 1040.43zM803.92 665.43L868.88 702.93L868.88 777.93L803.92 815.43L738.97 777.93L738.97 702.93zM803.92 890.43L868.88 927.93L868.88 1002.93L803.92 1040.43L738.97 1002.93L738.97 927.93zM933.83 -9.57L998.79 27.93L998.79 102.93L933.83 140.43L868.88 102.93L868.88 27.93zM933.83 665.43L998.79 702.93L998.79 777.93L933.83 815.43L868.88 777.93L868.88 702.93zM998.79 1002.93L1063.74 1040.43L1063.74 1115.43L998.79 1152.93L933.83 1115.43L933.83 1040.43z" stroke="#03305d" stroke-width="2"></path><path d="M16.98 -9.57 a7.5 7.5 0 1 0 15 0 a7.5 7.5 0 1 0 -15 0zM81.93 27.93 a7.5 7.5 0 1 0 15 0 a7.5 7.5 0 1 0 -15 0zM81.93 102.93 a7.5 7.5 0 1 0 15 0 a7.5 7.5 0 1 0 -15 0zM16.98 140.43 a7.5 7.5 0 1 0 15 0 a7.5 7.5 0 1 0 -15 0zM-47.97 102.93 a7.5 7.5 0 1 0 15 0 a7.5 7.5 0 1 0 -15 0zM-47.97 27.93 a7.5 7.5 0 1 0 15 0 a7.5 7.5 0 1 0 -15 0zM16.98 215.43 a7.5 7.5 0 1 0 15 0 a7.5 7.5 0 1 0 -15 0zM81.93 252.93 a7.5 7.5 0 1 0 15 0 a7.5 7.5 0 1 0 -15 0zM81.93 327.93 a7.5 7.5 0 1 0 15 0 a7.5 7.5 0 1 0 -15 0zM16.98 365.43 a7.5 7.5 0 1 0 15 0 a7.5 7.5 0 1 0 -15 0zM-47.97 327.93 a7.5 7.5 0 1 0 15 0 a7.5 7.5 0 1 0 -15 0zM-47.97 252.93 a7.5 7.5 0 1 0 15 0 a7.5 7.5 0 1 0 -15 0zM146.89 365.43 a7.5 7.5 0 1 0 15 0 a7.5 7.5 0 1 0 -15 0zM146.89 440.43 a7.5 7.5 0 1 0 15 0 a7.5 7.5 0 1 0 -15 0zM81.93 477.93 a7.5 7.5 0 1 0 15 0 a7.5 7.5 0 1 0 -15 0zM16.98 440.43 a7.5 7.5 0 1 0 15 0 a7.5 7.5 0 1 0 -15 0zM16.98 665.43 a7.5 7.5 0 1 0 15 0 a7.5 7.5 0 1 0 -15 0zM81.93 702.93 a7.5 7.5 0 1 0 15 0 a7.5 7.5 0 1 0 -15 0zM81.93 777.93 a7.5 7.5 0 1 0 15 0 a7.5 7.5 0 1 0 -15 0zM16.98 815.43 a7.5 7.5 0 1 0 15 0 a7.5 7.5 0 1 0 -15 0zM-47.97 777.93 a7.5 7.5 0 1 0 15 0 a7.5 7.5 0 1 0 -15 0zM-47.97 702.93 a7.5 7.5 0 1 0 15 0 a7.5 7.5 0 1 0 -15 0zM81.93 1002.93 a7.5 7.5 0 1 0 15 0 a7.5 7.5 0 1 0 -15 0zM146.89 1040.43 a7.5 7.5 0 1 0 15 0 a7.5 7.5 0 1 0 -15 0zM146.89 1115.43 a7.5 7.5 0 1 0 15 0 a7.5 7.5 0 1 0 -15 0zM81.93 1152.93 a7.5 7.5 0 1 0 15 0 a7.5 7.5 0 1 0 -15 0zM16.98 1115.43 a7.5 7.5 0 1 0 15 0 a7.5 7.5 0 1 0 -15 0zM16.98 1040.43 a7.5 7.5 0 1 0 15 0 a7.5 7.5 0 1 0 -15 0zM211.84 327.93 a7.5 7.5 0 1 0 15 0 a7.5 7.5 0 1 0 -15 0zM276.8 365.43 a7.5 7.5 0 1 0 15 0 a7.5 7.5 0 1 0 -15 0zM276.8 440.43 a7.5 7.5 0 1 0 15 0 a7.5 7.5 0 1 0 -15 0zM211.84 477.93 a7.5 7.5 0 1 0 15 0 a7.5 7.5 0 1 0 -15 0zM211.84 777.93 a7.5 7.5 0 1 0 15 0 a7.5 7.5 0 1 0 -15 0zM276.8 815.43 a7.5 7.5 0 1 0 15 0 a7.5 7.5 0 1 0 -15 0zM276.8 890.43 a7.5 7.5 0 1 0 15 0 a7.5 7.5 0 1 0 -15 0zM211.84 927.93 a7.5 7.5 0 1 0 15 0 a7.5 7.5 0 1 0 -15 0zM146.89 890.43 a7.5 7.5 0 1 0 15 0 a7.5 7.5 0 1 0 -15 0zM146.89 815.43 a7.5 7.5 0 1 0 15 0 a7.5 7.5 0 1 0 -15 0zM276.8 -9.57 a7.5 7.5 0 1 0 15 0 a7.5 7.5 0 1 0 -15 0zM341.75 27.93 a7.5 7.5 0 1 0 15 0 a7.5 7.5 0 1 0 -15 0zM341.75 102.93 a7.5 7.5 0 1 0 15 0 a7.5 7.5 0 1 0 -15 0zM276.8 140.43 a7.5 7.5 0 1 0 15 0 a7.5 7.5 0 1 0 -15 0zM211.84 102.93 a7.5 7.5 0 1 0 15 0 a7.5 7.5 0 1 0 -15 0zM211.84 27.93 a7.5 7.5 0 1 0 15 0 a7.5 7.5 0 1 0 -15 0zM276.8 215.43 a7.5 7.5 0 1 0 15 0 a7.5 7.5 0 1 0 -15 0zM341.75 252.93 a7.5 7.5 0 1 0 15 0 a7.5 7.5 0 1 0 -15 0zM341.75 327.93 a7.5 7.5 0 1 0 15 0 a7.5 7.5 0 1 0 -15 0zM211.84 252.93 a7.5 7.5 0 1 0 15 0 a7.5 7.5 0 1 0 -15 0zM341.75 477.93 a7.5 7.5 0 1 0 15 0 a7.5 7.5 0 1 0 -15 0zM341.75 552.93 a7.5 7.5 0 1 0 15 0 a7.5 7.5 0 1 0 -15 0zM276.8 590.43 a7.5 7.5 0 1 0 15 0 a7.5 7.5 0 1 0 -15 0zM211.84 552.93 a7.5 7.5 0 1 0 15 0 a7.5 7.5 0 1 0 -15 0zM341.75 777.93 a7.5 7.5 0 1 0 15 0 a7.5 7.5 0 1 0 -15 0zM406.7 815.43 a7.5 7.5 0 1 0 15 0 a7.5 7.5 0 1 0 -15 0zM406.7 890.43 a7.5 7.5 0 1 0 15 0 a7.5 7.5 0 1 0 -15 0zM341.75 927.93 a7.5 7.5 0 1 0 15 0 a7.5 7.5 0 1 0 -15 0zM341.75 1002.93 a7.5 7.5 0 1 0 15 0 a7.5 7.5 0 1 0 -15 0zM276.8 1040.43 a7.5 7.5 0 1 0 15 0 a7.5 7.5 0 1 0 -15 0zM211.84 1002.93 a7.5 7.5 0 1 0 15 0 a7.5 7.5 0 1 0 -15 0zM406.7 -9.57 a7.5 7.5 0 1 0 15 0 a7.5 7.5 0 1 0 -15 0zM471.66 27.93 a7.5 7.5 0 1 0 15 0 a7.5 7.5 0 1 0 -15 0zM471.66 102.93 a7.5 7.5 0 1 0 15 0 a7.5 7.5 0 1 0 -15 0zM406.7 140.43 a7.5 7.5 0 1 0 15 0 a7.5 7.5 0 1 0 -15 0zM536.61 140.43 a7.5 7.5 0 1 0 15 0 a7.5 7.5 0 1 0 -15 0zM536.61 215.43 a7.5 7.5 0 1 0 15 0 a7.5 7.5 0 1 0 -15 0zM471.66 252.93 a7.5 7.5 0 1 0 15 0 a7.5 7.5 0 1 0 -15 0zM406.7 215.43 a7.5 7.5 0 1 0 15 0 a7.5 7.5 0 1 0 -15 0zM471.66 327.93 a7.5 7.5 0 1 0 15 0 a7.5 7.5 0 1 0 -15 0zM536.61 365.43 a7.5 7.5 0 1 0 15 0 a7.5 7.5 0 1 0 -15 0zM536.61 440.43 a7.5 7.5 0 1 0 15 0 a7.5 7.5 0 1 0 -15 0zM471.66 477.93 a7.5 7.5 0 1 0 15 0 a7.5 7.5 0 1 0 -15 0zM406.7 440.43 a7.5 7.5 0 1 0 15 0 a7.5 7.5 0 1 0 -15 0zM406.7 365.43 a7.5 7.5 0 1 0 15 0 a7.5 7.5 0 1 0 -15 0zM471.66 552.93 a7.5 7.5 0 1 0 15 0 a7.5 7.5 0 1 0 -15 0zM406.7 590.43 a7.5 7.5 0 1 0 15 0 a7.5 7.5 0 1 0 -15 0zM471.66 777.93 a7.5 7.5 0 1 0 15 0 a7.5 7.5 0 1 0 -15 0zM536.61 815.43 a7.5 7.5 0 1 0 15 0 a7.5 7.5 0 1 0 -15 0zM536.61 890.43 a7.5 7.5 0 1 0 15 0 a7.5 7.5 0 1 0 -15 0zM471.66 927.93 a7.5 7.5 0 1 0 15 0 a7.5 7.5 0 1 0 -15 0zM536.61 -9.57 a7.5 7.5 0 1 0 15 0 a7.5 7.5 0 1 0 -15 0zM601.56 27.93 a7.5 7.5 0 1 0 15 0 a7.5 7.5 0 1 0 -15 0zM601.56 102.93 a7.5 7.5 0 1 0 15 0 a7.5 7.5 0 1 0 -15 0zM601.56 327.93 a7.5 7.5 0 1 0 15 0 a7.5 7.5 0 1 0 -15 0zM666.52 365.43 a7.5 7.5 0 1 0 15 0 a7.5 7.5 0 1 0 -15 0zM666.52 440.43 a7.5 7.5 0 1 0 15 0 a7.5 7.5 0 1 0 -15 0zM601.56 477.93 a7.5 7.5 0 1 0 15 0 a7.5 7.5 0 1 0 -15 0zM601.56 552.93 a7.5 7.5 0 1 0 15 0 a7.5 7.5 0 1 0 -15 0zM536.61 590.43 a7.5 7.5 0 1 0 15 0 a7.5 7.5 0 1 0 -15 0zM536.61 665.43 a7.5 7.5 0 1 0 15 0 a7.5 7.5 0 1 0 -15 0zM601.56 702.93 a7.5 7.5 0 1 0 15 0 a7.5 7.5 0 1 0 -15 0zM601.56 777.93 a7.5 7.5 0 1 0 15 0 a7.5 7.5 0 1 0 -15 0zM471.66 702.93 a7.5 7.5 0 1 0 15 0 a7.5 7.5 0 1 0 -15 0zM731.47 327.93 a7.5 7.5 0 1 0 15 0 a7.5 7.5 0 1 0 -15 0zM796.43 365.43 a7.5 7.5 0 1 0 15 0 a7.5 7.5 0 1 0 -15 0zM796.43 440.43 a7.5 7.5 0 1 0 15 0 a7.5 7.5 0 1 0 -15 0zM731.47 477.93 a7.5 7.5 0 1 0 15 0 a7.5 7.5 0 1 0 -15 0zM731.47 552.93 a7.5 7.5 0 1 0 15 0 a7.5 7.5 0 1 0 -15 0zM796.43 590.43 a7.5 7.5 0 1 0 15 0 a7.5 7.5 0 1 0 -15 0zM796.43 665.43 a7.5 7.5 0 1 0 15 0 a7.5 7.5 0 1 0 -15 0zM731.47 702.93 a7.5 7.5 0 1 0 15 0 a7.5 7.5 0 1 0 -15 0zM666.52 665.43 a7.5 7.5 0 1 0 15 0 a7.5 7.5 0 1 0 -15 0zM666.52 590.43 a7.5 7.5 0 1 0 15 0 a7.5 7.5 0 1 0 -15 0zM666.52 890.43 a7.5 7.5 0 1 0 15 0 a7.5 7.5 0 1 0 -15 0zM731.47 927.93 a7.5 7.5 0 1 0 15 0 a7.5 7.5 0 1 0 -15 0zM731.47 1002.93 a7.5 7.5 0 1 0 15 0 a7.5 7.5 0 1 0 -15 0zM666.52 1040.43 a7.5 7.5 0 1 0 15 0 a7.5 7.5 0 1 0 -15 0zM601.56 1002.93 a7.5 7.5 0 1 0 15 0 a7.5 7.5 0 1 0 -15 0zM601.56 927.93 a7.5 7.5 0 1 0 15 0 a7.5 7.5 0 1 0 -15 0zM796.43 1040.43 a7.5 7.5 0 1 0 15 0 a7.5 7.5 0 1 0 -15 0zM796.43 1115.43 a7.5 7.5 0 1 0 15 0 a7.5 7.5 0 1 0 -15 0zM731.47 1152.93 a7.5 7.5 0 1 0 15 0 a7.5 7.5 0 1 0 -15 0zM666.52 1115.43 a7.5 7.5 0 1 0 15 0 a7.5 7.5 0 1 0 -15 0zM796.42 665.43 a7.5 7.5 0 1 0 15 0 a7.5 7.5 0 1 0 -15 0zM861.38 702.93 a7.5 7.5 0 1 0 15 0 a7.5 7.5 0 1 0 -15 0zM861.38 777.93 a7.5 7.5 0 1 0 15 0 a7.5 7.5 0 1 0 -15 0zM796.42 815.43 a7.5 7.5 0 1 0 15 0 a7.5 7.5 0 1 0 -15 0zM731.47 777.93 a7.5 7.5 0 1 0 15 0 a7.5 7.5 0 1 0 -15 0zM796.42 890.43 a7.5 7.5 0 1 0 15 0 a7.5 7.5 0 1 0 -15 0zM861.38 927.93 a7.5 7.5 0 1 0 15 0 a7.5 7.5 0 1 0 -15 0zM861.38 1002.93 a7.5 7.5 0 1 0 15 0 a7.5 7.5 0 1 0 -15 0zM796.42 1040.43 a7.5 7.5 0 1 0 15 0 a7.5 7.5 0 1 0 -15 0zM926.33 -9.57 a7.5 7.5 0 1 0 15 0 a7.5 7.5 0 1 0 -15 0zM991.29 27.93 a7.5 7.5 0 1 0 15 0 a7.5 7.5 0 1 0 -15 0zM991.29 102.93 a7.5 7.5 0 1 0 15 0 a7.5 7.5 0 1 0 -15 0zM926.33 140.43 a7.5 7.5 0 1 0 15 0 a7.5 7.5 0 1 0 -15 0zM861.38 102.93 a7.5 7.5 0 1 0 15 0 a7.5 7.5 0 1 0 -15 0zM861.38 27.93 a7.5 7.5 0 1 0 15 0 a7.5 7.5 0 1 0 -15 0zM926.33 665.43 a7.5 7.5 0 1 0 15 0 a7.5 7.5 0 1 0 -15 0zM991.29 702.93 a7.5 7.5 0 1 0 15 0 a7.5 7.5 0 1 0 -15 0zM991.29 777.93 a7.5 7.5 0 1 0 15 0 a7.5 7.5 0 1 0 -15 0zM926.33 815.43 a7.5 7.5 0 1 0 15 0 a7.5 7.5 0 1 0 -15 0zM991.29 1002.93 a7.5 7.5 0 1 0 15 0 a7.5 7.5 0 1 0 -15 0zM1056.24 1040.43 a7.5 7.5 0 1 0 15 0 a7.5 7.5 0 1 0 -15 0zM1056.24 1115.43 a7.5 7.5 0 1 0 15 0 a7.5 7.5 0 1 0 -15 0zM991.29 1152.93 a7.5 7.5 0 1 0 15 0 a7.5 7.5 0 1 0 -15 0zM926.33 1115.43 a7.5 7.5 0 1 0 15 0 a7.5 7.5 0 1 0 -15 0zM926.33 1040.43 a7.5 7.5 0 1 0 15 0 a7.5 7.5 0 1 0 -15 0z" fill="#03305d"></path><path d="M56.85 327.13L100.16 352.13L100.16 402.13L56.85 427.13L13.55 402.13L13.55 352.13zM143.46 327.13L186.76 352.13L186.76 402.13L143.46 427.13L100.16 402.13L100.16 352.13zM100.16 402.13L143.46 427.13L143.46 477.13L100.16 502.13L56.85 477.13L56.85 427.13zM143.46 477.13L186.76 502.13L186.76 552.13L143.46 577.13L100.16 552.13L100.16 502.13zM186.76 252.13L230.06 277.13L230.06 327.13L186.76 352.13L143.46 327.13L143.46 277.13zM230.06 327.13L273.37 352.13L273.37 402.13L230.06 427.13L186.76 402.13L186.76 352.13zM186.76 702.13L230.06 727.13L230.06 777.13L186.76 802.13L143.46 777.13L143.46 727.13zM273.37 852.13L316.67 877.13L316.67 927.13L273.37 952.13L230.06 927.13L230.06 877.13zM359.97 552.13L403.27 577.13L403.27 627.13L359.97 652.13L316.67 627.13L316.67 577.13zM446.58 -47.87L489.88 -22.87L489.88 27.13L446.58 52.13L403.27 27.13L403.27 -22.87zM489.88 27.13L533.18 52.13L533.18 102.13L489.88 127.13L446.58 102.13L446.58 52.13zM489.88 177.13L533.18 202.13L533.18 252.13L489.88 277.13L446.58 252.13L446.58 202.13zM489.88 327.13L533.18 352.13L533.18 402.13L489.88 427.13L446.58 402.13L446.58 352.13zM446.58 402.13L489.88 427.13L489.88 477.13L446.58 502.13L403.27 477.13L403.27 427.13zM489.88 627.13L533.18 652.13L533.18 702.13L489.88 727.13L446.58 702.13L446.58 652.13zM446.58 852.13L489.88 877.13L489.88 927.13L446.58 952.13L403.27 927.13L403.27 877.13zM489.88 927.13L533.18 952.13L533.18 1002.13L489.88 1027.13L446.58 1002.13L446.58 952.13zM533.18 102.13L576.48 127.13L576.48 177.13L533.18 202.13L489.88 177.13L489.88 127.13zM533.18 252.13L576.48 277.13L576.48 327.13L533.18 352.13L489.88 327.13L489.88 277.13zM576.48 327.13L619.78 352.13L619.78 402.13L576.48 427.13L533.18 402.13L533.18 352.13zM533.18 402.13L576.48 427.13L576.48 477.13L533.18 502.13L489.88 477.13L489.88 427.13zM576.48 777.13L619.78 802.13L619.78 852.13L576.48 877.13L533.18 852.13L533.18 802.13zM576.48 927.13L619.78 952.13L619.78 1002.13L576.48 1027.13L533.18 1002.13L533.18 952.13zM619.78 102.13L663.09 127.13L663.09 177.13L619.78 202.13L576.48 177.13L576.48 127.13zM663.09 177.13L706.39 202.13L706.39 252.13L663.09 277.13L619.78 252.13L619.78 202.13zM619.78 402.13L663.09 427.13L663.09 477.13L619.78 502.13L576.48 477.13L576.48 427.13zM663.09 627.13L706.39 652.13L706.39 702.13L663.09 727.13L619.78 702.13L619.78 652.13zM749.69 327.13L793 352.13L793 402.13L749.69 427.13L706.39 402.13L706.39 352.13zM706.39 552.13L749.69 577.13L749.69 627.13L706.39 652.13L663.09 627.13L663.09 577.13zM706.39 702.13L749.69 727.13L749.69 777.13L706.39 802.13L663.09 777.13L663.09 727.13zM706.39 852.13L749.69 877.13L749.69 927.13L706.39 952.13L663.09 927.13L663.09 877.13zM836.3 27.13L879.6 52.13L879.6 102.13L836.3 127.13L793 102.13L793 52.13zM793 102.13L836.3 127.13L836.3 177.13L793 202.13L749.69 177.13L749.69 127.13zM793 252.13L836.3 277.13L836.3 327.13L793 352.13L749.69 327.13L749.69 277.13zM793 702.13L836.3 727.13L836.3 777.13L793 802.13L749.69 777.13L749.69 727.13zM922.9 477.13L966.21 502.13L966.21 552.13L922.9 577.13L879.6 552.13L879.6 502.13zM922.9 627.13L966.21 652.13L966.21 702.13L922.9 727.13L879.6 702.13L879.6 652.13zM922.9 777.13L966.21 802.13L966.21 852.13L922.9 877.13L879.6 852.13L879.6 802.13zM966.21 102.13L1009.51 127.13L1009.51 177.13L966.21 202.13L922.9 177.13L922.9 127.13zM1009.51 327.13L1052.81 352.13L1052.81 402.13L1009.51 427.13L966.21 402.13L966.21 352.13zM1009.51 477.13L1052.81 502.13L1052.81 552.13L1009.51 577.13L966.21 552.13L966.21 502.13zM966.21 852.13L1009.51 877.13L1009.51 927.13L966.21 952.13L922.9 927.13L922.9 877.13z" stroke="rgba(6, 80, 156, 0.93)" stroke-width="2"></path></g><defs><mask id="SvgjsMask1017"><rect width="1000" height="1000" fill="#ffffff"></rect></mask></defs></svg>