<svg xmlns="http://www.w3.org/2000/svg" version="1.1" xmlns:xlink="http://www.w3.org/1999/xlink" xmlns:svgjs="http://svgjs.com/svgjs" width="1000" height="1000" preserveAspectRatio="none" viewBox="0 0 1000 1000"><g mask="url(&quot;#SvgjsMask1008&quot;)" fill="none"><path d="M-90.01 658.52L-90.01 658.52" stroke="#132e65" stroke-width="1.5"></path><path d="M-90.01 658.52L36.81 713.42" stroke="#132e65" stroke-width="1.5"></path><path d="M-90.01 658.52L-80.64 832.13" stroke="#132e65" stroke-width="1.5"></path><path d="M-80.64 832.13L-80.64 832.13" stroke="#132e65" stroke-width="1.5"></path><path d="M-80.64 832.13L-67.18 932.21" stroke="#132e65" stroke-width="1.5"></path><path d="M-80.64 832.13L31.61 792.74" stroke="#132e65" stroke-width="1.5"></path><path d="M-80.64 832.13L36.81 713.42" stroke="#132e65" stroke-width="1.5"></path><path d="M-80.64 832.13L44.64 942.87" stroke="#132e65" stroke-width="1.5"></path><path d="M-67.18 932.21L-67.18 932.21" stroke="#132e65" stroke-width="1.5"></path><path d="M-35.64 1075.96L-35.64 1075.96" stroke="#132e65" stroke-width="1.5"></path><path d="M-35.64 1075.96L35.8 1031.25" stroke="#132e65" stroke-width="1.5"></path><path d="M-35.64 1075.96L-67.18 932.21" stroke="#132e65" stroke-width="1.5"></path><path d="M-35.64 1075.96L44.64 942.87" stroke="#132e65" stroke-width="1.5"></path><path d="M-35.64 1075.96L182.93 962.62" stroke="#132e65" stroke-width="1.5"></path><path d="M36.81 713.42L36.81 713.42" stroke="#132e65" stroke-width="1.5"></path><path d="M36.81 713.42L31.61 792.74" stroke="#132e65" stroke-width="1.5"></path><path d="M36.81 713.42L169.66 680.5" stroke="#132e65" stroke-width="1.5"></path><path d="M36.81 713.42L165.23 810.33" stroke="#132e65" stroke-width="1.5"></path><path d="M31.61 792.74L31.61 792.74" stroke="#132e65" stroke-width="1.5"></path><path d="M44.64 942.87L44.64 942.87" stroke="#132e65" stroke-width="1.5"></path><path d="M44.64 942.87L35.8 1031.25" stroke="#132e65" stroke-width="1.5"></path><path d="M44.64 942.87L-67.18 932.21" stroke="#132e65" stroke-width="1.5"></path><path d="M44.64 942.87L182.93 962.62" stroke="#132e65" stroke-width="1.5"></path><path d="M44.64 942.87L31.61 792.74" stroke="#132e65" stroke-width="1.5"></path><path d="M35.8 1031.25L35.8 1031.25" stroke="#132e65" stroke-width="1.5"></path><path d="M213.33 586.44L213.33 586.44" stroke="#132e65" stroke-width="1.5"></path><path d="M213.33 586.44L312.76 569.98" stroke="#132e65" stroke-width="1.5"></path><path d="M213.33 586.44L169.66 680.5" stroke="#132e65" stroke-width="1.5"></path><path d="M213.33 586.44L314.97 673.96" stroke="#132e65" stroke-width="1.5"></path><path d="M169.66 680.5L169.66 680.5" stroke="#132e65" stroke-width="1.5"></path><path d="M165.23 810.33L165.23 810.33" stroke="#132e65" stroke-width="1.5"></path><path d="M165.23 810.33L290.21 796.78" stroke="#132e65" stroke-width="1.5"></path><path d="M165.23 810.33L169.66 680.5" stroke="#132e65" stroke-width="1.5"></path><path d="M165.23 810.33L31.61 792.74" stroke="#132e65" stroke-width="1.5"></path><path d="M165.23 810.33L182.93 962.62" stroke="#132e65" stroke-width="1.5"></path><path d="M182.93 962.62L182.93 962.62" stroke="#132e65" stroke-width="1.5"></path><path d="M182.93 962.62L212.1 1064.18" stroke="#132e65" stroke-width="1.5"></path><path d="M182.93 962.62L303.9 939.91" stroke="#132e65" stroke-width="1.5"></path><path d="M182.93 962.62L305.53 1047.12" stroke="#132e65" stroke-width="1.5"></path><path d="M212.1 1064.18L212.1 1064.18" stroke="#132e65" stroke-width="1.5"></path><path d="M212.1 1064.18L305.53 1047.12" stroke="#132e65" stroke-width="1.5"></path><path d="M212.1 1064.18L303.9 939.91" stroke="#132e65" stroke-width="1.5"></path><path d="M212.1 1064.18L35.8 1031.25" stroke="#132e65" stroke-width="1.5"></path><path d="M312.76 569.98L312.76 569.98" stroke="#132e65" stroke-width="1.5"></path><path d="M312.76 569.98L314.97 673.96" stroke="#132e65" stroke-width="1.5"></path><path d="M312.76 569.98L448.81 548.72" stroke="#132e65" stroke-width="1.5"></path><path d="M312.76 569.98L406.48 449.6" stroke="#132e65" stroke-width="1.5"></path><path d="M314.97 673.96L314.97 673.96" stroke="#132e65" stroke-width="1.5"></path><path d="M314.97 673.96L290.21 796.78" stroke="#132e65" stroke-width="1.5"></path><path d="M314.97 673.96L443.91 684.29" stroke="#132e65" stroke-width="1.5"></path><path d="M290.21 796.78L290.21 796.78" stroke="#132e65" stroke-width="1.5"></path><path d="M290.21 796.78L406.28 812.33" stroke="#132e65" stroke-width="1.5"></path><path d="M290.21 796.78L303.9 939.91" stroke="#132e65" stroke-width="1.5"></path><path d="M303.9 939.91L303.9 939.91" stroke="#132e65" stroke-width="1.5"></path><path d="M303.9 939.91L409.27 921.03" stroke="#132e65" stroke-width="1.5"></path><path d="M303.9 939.91L305.53 1047.12" stroke="#132e65" stroke-width="1.5"></path><path d="M303.9 939.91L406.28 812.33" stroke="#132e65" stroke-width="1.5"></path><path d="M305.53 1047.12L305.53 1047.12" stroke="#132e65" stroke-width="1.5"></path><path d="M406.48 449.6L406.48 449.6" stroke="#132e65" stroke-width="1.5"></path><path d="M406.48 449.6L448.81 548.72" stroke="#132e65" stroke-width="1.5"></path><path d="M406.48 449.6L589.7 429.91" stroke="#132e65" stroke-width="1.5"></path><path d="M448.81 548.72L448.81 548.72" stroke="#132e65" stroke-width="1.5"></path><path d="M448.81 548.72L556.01 583.61" stroke="#132e65" stroke-width="1.5"></path><path d="M448.81 548.72L443.91 684.29" stroke="#132e65" stroke-width="1.5"></path><path d="M443.91 684.29L443.91 684.29" stroke="#132e65" stroke-width="1.5"></path><path d="M443.91 684.29L553.72 678.86" stroke="#132e65" stroke-width="1.5"></path><path d="M443.91 684.29L406.28 812.33" stroke="#132e65" stroke-width="1.5"></path><path d="M406.28 812.33L406.28 812.33" stroke="#132e65" stroke-width="1.5"></path><path d="M406.28 812.33L409.27 921.03" stroke="#132e65" stroke-width="1.5"></path><path d="M406.28 812.33L534.51 799" stroke="#132e65" stroke-width="1.5"></path><path d="M409.27 921.03L409.27 921.03" stroke="#132e65" stroke-width="1.5"></path><path d="M409.27 921.03L457.48 1060.71" stroke="#132e65" stroke-width="1.5"></path><path d="M409.27 921.03L564.45 910.51" stroke="#132e65" stroke-width="1.5"></path><path d="M409.27 921.03L305.53 1047.12" stroke="#132e65" stroke-width="1.5"></path><path d="M409.27 921.03L290.21 796.78" stroke="#132e65" stroke-width="1.5"></path><path d="M457.48 1060.71L457.48 1060.71" stroke="#132e65" stroke-width="1.5"></path><path d="M457.48 1060.71L534.99 1060.25" stroke="#132e65" stroke-width="1.5"></path><path d="M457.48 1060.71L305.53 1047.12" stroke="#132e65" stroke-width="1.5"></path><path d="M579.18 309.85L579.18 309.85" stroke="#132e65" stroke-width="1.5"></path><path d="M579.18 309.85L589.7 429.91" stroke="#132e65" stroke-width="1.5"></path><path d="M579.18 309.85L668.11 418.67" stroke="#132e65" stroke-width="1.5"></path><path d="M579.18 309.85L686.87 184.82" stroke="#132e65" stroke-width="1.5"></path><path d="M579.18 309.85L406.48 449.6" stroke="#132e65" stroke-width="1.5"></path><path d="M579.18 309.85L805.91 200.69" stroke="#132e65" stroke-width="1.5"></path><path d="M579.18 309.85L816.7 434.65" stroke="#132e65" stroke-width="1.5"></path><path d="M589.7 429.91L589.7 429.91" stroke="#132e65" stroke-width="1.5"></path><path d="M589.7 429.91L668.11 418.67" stroke="#132e65" stroke-width="1.5"></path><path d="M589.7 429.91L556.01 583.61" stroke="#132e65" stroke-width="1.5"></path><path d="M589.7 429.91L448.81 548.72" stroke="#132e65" stroke-width="1.5"></path><path d="M589.7 429.91L717.98 593.68" stroke="#132e65" stroke-width="1.5"></path><path d="M556.01 583.61L556.01 583.61" stroke="#132e65" stroke-width="1.5"></path><path d="M556.01 583.61L553.72 678.86" stroke="#132e65" stroke-width="1.5"></path><path d="M556.01 583.61L682.14 663.31" stroke="#132e65" stroke-width="1.5"></path><path d="M556.01 583.61L443.91 684.29" stroke="#132e65" stroke-width="1.5"></path><path d="M556.01 583.61L717.98 593.68" stroke="#132e65" stroke-width="1.5"></path><path d="M553.72 678.86L553.72 678.86" stroke="#132e65" stroke-width="1.5"></path><path d="M553.72 678.86L534.51 799" stroke="#132e65" stroke-width="1.5"></path><path d="M553.72 678.86L682.14 663.31" stroke="#132e65" stroke-width="1.5"></path><path d="M553.72 678.86L448.81 548.72" stroke="#132e65" stroke-width="1.5"></path><path d="M534.51 799L534.51 799" stroke="#132e65" stroke-width="1.5"></path><path d="M534.51 799L564.45 910.51" stroke="#132e65" stroke-width="1.5"></path><path d="M534.51 799L443.91 684.29" stroke="#132e65" stroke-width="1.5"></path><path d="M534.51 799L409.27 921.03" stroke="#132e65" stroke-width="1.5"></path><path d="M564.45 910.51L564.45 910.51" stroke="#132e65" stroke-width="1.5"></path><path d="M564.45 910.51L709.59 944.78" stroke="#132e65" stroke-width="1.5"></path><path d="M564.45 910.51L534.99 1060.25" stroke="#132e65" stroke-width="1.5"></path><path d="M564.45 910.51L711.5 825.85" stroke="#132e65" stroke-width="1.5"></path><path d="M564.45 910.51L457.48 1060.71" stroke="#132e65" stroke-width="1.5"></path><path d="M534.99 1060.25L534.99 1060.25" stroke="#132e65" stroke-width="1.5"></path><path d="M534.99 1060.25L702.74 1079.11" stroke="#132e65" stroke-width="1.5"></path><path d="M534.99 1060.25L409.27 921.03" stroke="#132e65" stroke-width="1.5"></path><path d="M534.99 1060.25L709.59 944.78" stroke="#132e65" stroke-width="1.5"></path><path d="M534.99 1060.25L305.53 1047.12" stroke="#132e65" stroke-width="1.5"></path><path d="M698.71 -87.59L698.71 -87.59" stroke="#132e65" stroke-width="1.5"></path><path d="M698.71 -87.59L817.8 -74.4" stroke="#132e65" stroke-width="1.5"></path><path d="M698.71 -87.59L708.4 58.62" stroke="#132e65" stroke-width="1.5"></path><path d="M698.71 -87.59L843.67 70.42" stroke="#132e65" stroke-width="1.5"></path><path d="M698.71 -87.59L950.58 -92.29" stroke="#132e65" stroke-width="1.5"></path><path d="M708.4 58.62L708.4 58.62" stroke="#132e65" stroke-width="1.5"></path><path d="M708.4 58.62L686.87 184.82" stroke="#132e65" stroke-width="1.5"></path><path d="M708.4 58.62L843.67 70.42" stroke="#132e65" stroke-width="1.5"></path><path d="M708.4 58.62L817.8 -74.4" stroke="#132e65" stroke-width="1.5"></path><path d="M708.4 58.62L805.91 200.69" stroke="#132e65" stroke-width="1.5"></path><path d="M708.4 58.62L929.93 72.02" stroke="#132e65" stroke-width="1.5"></path><path d="M686.87 184.82L686.87 184.82" stroke="#132e65" stroke-width="1.5"></path><path d="M686.87 184.82L805.91 200.69" stroke="#132e65" stroke-width="1.5"></path><path d="M668.11 418.67L668.11 418.67" stroke="#132e65" stroke-width="1.5"></path><path d="M668.11 418.67L816.7 434.65" stroke="#132e65" stroke-width="1.5"></path><path d="M668.11 418.67L717.98 593.68" stroke="#132e65" stroke-width="1.5"></path><path d="M668.11 418.67L556.01 583.61" stroke="#132e65" stroke-width="1.5"></path><path d="M717.98 593.68L717.98 593.68" stroke="#132e65" stroke-width="1.5"></path><path d="M717.98 593.68L784.54 581.74" stroke="#132e65" stroke-width="1.5"></path><path d="M717.98 593.68L682.14 663.31" stroke="#132e65" stroke-width="1.5"></path><path d="M717.98 593.68L815.68 696.03" stroke="#132e65" stroke-width="1.5"></path><path d="M682.14 663.31L682.14 663.31" stroke="#132e65" stroke-width="1.5"></path><path d="M711.5 825.85L711.5 825.85" stroke="#132e65" stroke-width="1.5"></path><path d="M711.5 825.85L782.6 795.8" stroke="#132e65" stroke-width="1.5"></path><path d="M711.5 825.85L709.59 944.78" stroke="#132e65" stroke-width="1.5"></path><path d="M711.5 825.85L821.94 946.46" stroke="#132e65" stroke-width="1.5"></path><path d="M709.59 944.78L709.59 944.78" stroke="#132e65" stroke-width="1.5"></path><path d="M709.59 944.78L821.94 946.46" stroke="#132e65" stroke-width="1.5"></path><path d="M709.59 944.78L783.82 1048.49" stroke="#132e65" stroke-width="1.5"></path><path d="M702.74 1079.11L702.74 1079.11" stroke="#132e65" stroke-width="1.5"></path><path d="M702.74 1079.11L783.82 1048.49" stroke="#132e65" stroke-width="1.5"></path><path d="M702.74 1079.11L709.59 944.78" stroke="#132e65" stroke-width="1.5"></path><path d="M702.74 1079.11L821.94 946.46" stroke="#132e65" stroke-width="1.5"></path><path d="M702.74 1079.11L564.45 910.51" stroke="#132e65" stroke-width="1.5"></path><path d="M817.8 -74.4L817.8 -74.4" stroke="#132e65" stroke-width="1.5"></path><path d="M817.8 -74.4L950.58 -92.29" stroke="#132e65" stroke-width="1.5"></path><path d="M817.8 -74.4L843.67 70.42" stroke="#132e65" stroke-width="1.5"></path><path d="M817.8 -74.4L929.93 72.02" stroke="#132e65" stroke-width="1.5"></path><path d="M817.8 -74.4L1075.73 -36.39" stroke="#132e65" stroke-width="1.5"></path><path d="M843.67 70.42L843.67 70.42" stroke="#132e65" stroke-width="1.5"></path><path d="M843.67 70.42L929.93 72.02" stroke="#132e65" stroke-width="1.5"></path><path d="M843.67 70.42L805.91 200.69" stroke="#132e65" stroke-width="1.5"></path><path d="M843.67 70.42L926.09 195.68" stroke="#132e65" stroke-width="1.5"></path><path d="M805.91 200.69L805.91 200.69" stroke="#132e65" stroke-width="1.5"></path><path d="M805.91 200.69L926.09 195.68" stroke="#132e65" stroke-width="1.5"></path><path d="M816.7 434.65L816.7 434.65" stroke="#132e65" stroke-width="1.5"></path><path d="M816.7 434.65L954.29 449.29" stroke="#132e65" stroke-width="1.5"></path><path d="M816.7 434.65L784.54 581.74" stroke="#132e65" stroke-width="1.5"></path><path d="M816.7 434.65L938.45 319.51" stroke="#132e65" stroke-width="1.5"></path><path d="M816.7 434.65L948.91 563.1" stroke="#132e65" stroke-width="1.5"></path><path d="M784.54 581.74L784.54 581.74" stroke="#132e65" stroke-width="1.5"></path><path d="M784.54 581.74L815.68 696.03" stroke="#132e65" stroke-width="1.5"></path><path d="M784.54 581.74L682.14 663.31" stroke="#132e65" stroke-width="1.5"></path><path d="M815.68 696.03L815.68 696.03" stroke="#132e65" stroke-width="1.5"></path><path d="M815.68 696.03L782.6 795.8" stroke="#132e65" stroke-width="1.5"></path><path d="M815.68 696.03L928.43 680.08" stroke="#132e65" stroke-width="1.5"></path><path d="M815.68 696.03L682.14 663.31" stroke="#132e65" stroke-width="1.5"></path><path d="M782.6 795.8L782.6 795.8" stroke="#132e65" stroke-width="1.5"></path><path d="M782.6 795.8L821.94 946.46" stroke="#132e65" stroke-width="1.5"></path><path d="M821.94 946.46L821.94 946.46" stroke="#132e65" stroke-width="1.5"></path><path d="M821.94 946.46L783.82 1048.49" stroke="#132e65" stroke-width="1.5"></path><path d="M821.94 946.46L927.26 1037.38" stroke="#132e65" stroke-width="1.5"></path><path d="M821.94 946.46L967.6 936.22" stroke="#132e65" stroke-width="1.5"></path><path d="M783.82 1048.49L783.82 1048.49" stroke="#132e65" stroke-width="1.5"></path><path d="M783.82 1048.49L927.26 1037.38" stroke="#132e65" stroke-width="1.5"></path><path d="M783.82 1048.49L967.6 936.22" stroke="#132e65" stroke-width="1.5"></path><path d="M950.58 -92.29L950.58 -92.29" stroke="#132e65" stroke-width="1.5"></path><path d="M950.58 -92.29L1075.73 -36.39" stroke="#132e65" stroke-width="1.5"></path><path d="M950.58 -92.29L929.93 72.02" stroke="#132e65" stroke-width="1.5"></path><path d="M950.58 -92.29L1075.55 49.42" stroke="#132e65" stroke-width="1.5"></path><path d="M929.93 72.02L929.93 72.02" stroke="#132e65" stroke-width="1.5"></path><path d="M929.93 72.02L926.09 195.68" stroke="#132e65" stroke-width="1.5"></path><path d="M929.93 72.02L1075.55 49.42" stroke="#132e65" stroke-width="1.5"></path><path d="M926.09 195.68L926.09 195.68" stroke="#132e65" stroke-width="1.5"></path><path d="M926.09 195.68L938.45 319.51" stroke="#132e65" stroke-width="1.5"></path><path d="M938.45 319.51L938.45 319.51" stroke="#132e65" stroke-width="1.5"></path><path d="M938.45 319.51L954.29 449.29" stroke="#132e65" stroke-width="1.5"></path><path d="M954.29 449.29L954.29 449.29" stroke="#132e65" stroke-width="1.5"></path><path d="M954.29 449.29L1060.53 435.01" stroke="#132e65" stroke-width="1.5"></path><path d="M954.29 449.29L948.91 563.1" stroke="#132e65" stroke-width="1.5"></path><path d="M954.29 449.29L1039.1 579.43" stroke="#132e65" stroke-width="1.5"></path><path d="M954.29 449.29L1086.24 298.2" stroke="#132e65" stroke-width="1.5"></path><path d="M948.91 563.1L948.91 563.1" stroke="#132e65" stroke-width="1.5"></path><path d="M948.91 563.1L1039.1 579.43" stroke="#132e65" stroke-width="1.5"></path><path d="M948.91 563.1L928.43 680.08" stroke="#132e65" stroke-width="1.5"></path><path d="M948.91 563.1L1055.27 682.27" stroke="#132e65" stroke-width="1.5"></path><path d="M928.43 680.08L928.43 680.08" stroke="#132e65" stroke-width="1.5"></path><path d="M928.43 680.08L1055.27 682.27" stroke="#132e65" stroke-width="1.5"></path><path d="M928.43 680.08L1039.1 579.43" stroke="#132e65" stroke-width="1.5"></path><path d="M928.43 680.08L959.86 832.66" stroke="#132e65" stroke-width="1.5"></path><path d="M959.86 832.66L959.86 832.66" stroke="#132e65" stroke-width="1.5"></path><path d="M959.86 832.66L1033.58 808.45" stroke="#132e65" stroke-width="1.5"></path><path d="M959.86 832.66L967.6 936.22" stroke="#132e65" stroke-width="1.5"></path><path d="M959.86 832.66L1065.1 967.15" stroke="#132e65" stroke-width="1.5"></path><path d="M959.86 832.66L1055.27 682.27" stroke="#132e65" stroke-width="1.5"></path><path d="M959.86 832.66L821.94 946.46" stroke="#132e65" stroke-width="1.5"></path><path d="M967.6 936.22L967.6 936.22" stroke="#132e65" stroke-width="1.5"></path><path d="M967.6 936.22L1065.1 967.15" stroke="#132e65" stroke-width="1.5"></path><path d="M967.6 936.22L927.26 1037.38" stroke="#132e65" stroke-width="1.5"></path><path d="M967.6 936.22L1033.58 808.45" stroke="#132e65" stroke-width="1.5"></path><path d="M927.26 1037.38L927.26 1037.38" stroke="#132e65" stroke-width="1.5"></path><path d="M1075.73 -36.39L1075.73 -36.39" stroke="#132e65" stroke-width="1.5"></path><path d="M1075.73 -36.39L1075.55 49.42" stroke="#132e65" stroke-width="1.5"></path><path d="M1075.73 -36.39L929.93 72.02" stroke="#132e65" stroke-width="1.5"></path><path d="M1075.73 -36.39L1080.88 174.79" stroke="#132e65" stroke-width="1.5"></path><path d="M1075.73 -36.39L843.67 70.42" stroke="#132e65" stroke-width="1.5"></path><path d="M1075.55 49.42L1075.55 49.42" stroke="#132e65" stroke-width="1.5"></path><path d="M1075.55 49.42L1080.88 174.79" stroke="#132e65" stroke-width="1.5"></path><path d="M1075.55 49.42L926.09 195.68" stroke="#132e65" stroke-width="1.5"></path><path d="M1075.55 49.42L843.67 70.42" stroke="#132e65" stroke-width="1.5"></path><path d="M1080.88 174.79L1080.88 174.79" stroke="#132e65" stroke-width="1.5"></path><path d="M1080.88 174.79L1086.24 298.2" stroke="#132e65" stroke-width="1.5"></path><path d="M1080.88 174.79L926.09 195.68" stroke="#132e65" stroke-width="1.5"></path><path d="M1080.88 174.79L929.93 72.02" stroke="#132e65" stroke-width="1.5"></path><path d="M1080.88 174.79L938.45 319.51" stroke="#132e65" stroke-width="1.5"></path><path d="M1086.24 298.2L1086.24 298.2" stroke="#132e65" stroke-width="1.5"></path><path d="M1086.24 298.2L1060.53 435.01" stroke="#132e65" stroke-width="1.5"></path><path d="M1086.24 298.2L938.45 319.51" stroke="#132e65" stroke-width="1.5"></path><path d="M1086.24 298.2L926.09 195.68" stroke="#132e65" stroke-width="1.5"></path><path d="M1086.24 298.2L1075.55 49.42" stroke="#132e65" stroke-width="1.5"></path><path d="M1060.53 435.01L1060.53 435.01" stroke="#132e65" stroke-width="1.5"></path><path d="M1060.53 435.01L1039.1 579.43" stroke="#132e65" stroke-width="1.5"></path><path d="M1039.1 579.43L1039.1 579.43" stroke="#132e65" stroke-width="1.5"></path><path d="M1039.1 579.43L1055.27 682.27" stroke="#132e65" stroke-width="1.5"></path><path d="M1039.1 579.43L1033.58 808.45" stroke="#132e65" stroke-width="1.5"></path><path d="M1055.27 682.27L1055.27 682.27" stroke="#132e65" stroke-width="1.5"></path><path d="M1055.27 682.27L1033.58 808.45" stroke="#132e65" stroke-width="1.5"></path><path d="M1033.58 808.45L1033.58 808.45" stroke="#132e65" stroke-width="1.5"></path><path d="M1065.1 967.15L1065.1 967.15" stroke="#132e65" stroke-width="1.5"></path><path d="M1065.1 967.15L1051.81 1056.63" stroke="#132e65" stroke-width="1.5"></path><path d="M1065.1 967.15L927.26 1037.38" stroke="#132e65" stroke-width="1.5"></path><path d="M1065.1 967.15L1033.58 808.45" stroke="#132e65" stroke-width="1.5"></path><path d="M1051.81 1056.63L1051.81 1056.63" stroke="#132e65" stroke-width="1.5"></path><circle r="5" cx="-90.01" cy="658.52" fill="#132e65"></circle><circle r="5" cx="-80.64" cy="832.13" fill="#132e65"></circle><circle r="5" cx="-67.18" cy="932.21" fill="#132e65"></circle><circle r="5" cx="-35.64" cy="1075.96" fill="#132e65"></circle><circle r="5" cx="36.81" cy="713.42" fill="#132e65"></circle><circle r="5" cx="31.61" cy="792.74" fill="#132e65"></circle><circle r="5" cx="44.64" cy="942.87" fill="#132e65"></circle><circle r="5" cx="35.8" cy="1031.25" fill="#132e65"></circle><circle r="5" cx="213.33" cy="586.44" fill="#132e65"></circle><circle r="5" cx="169.66" cy="680.5" fill="#132e65"></circle><circle r="5" cx="165.23" cy="810.33" fill="#132e65"></circle><circle r="5" cx="182.93" cy="962.62" fill="#132e65"></circle><circle r="5" cx="212.1" cy="1064.18" fill="#132e65"></circle><circle r="5" cx="312.76" cy="569.98" fill="#132e65"></circle><circle r="5" cx="314.97" cy="673.96" fill="#132e65"></circle><circle r="5" cx="290.21" cy="796.78" fill="#132e65"></circle><circle r="5" cx="303.9" cy="939.91" fill="#132e65"></circle><circle r="5" cx="305.53" cy="1047.12" fill="#132e65"></circle><circle r="5" cx="406.48" cy="449.6" fill="#132e65"></circle><circle r="5" cx="448.81" cy="548.72" fill="#132e65"></circle><circle r="5" cx="443.91" cy="684.29" fill="#132e65"></circle><circle r="5" cx="406.28" cy="812.33" fill="#132e65"></circle><circle r="5" cx="409.27" cy="921.03" fill="#132e65"></circle><circle r="5" cx="457.48" cy="1060.71" fill="#132e65"></circle><circle r="5" cx="579.18" cy="309.85" fill="#132e65"></circle><circle r="5" cx="589.7" cy="429.91" fill="#132e65"></circle><circle r="5" cx="556.01" cy="583.61" fill="#132e65"></circle><circle r="5" cx="553.72" cy="678.86" fill="#132e65"></circle><circle r="5" cx="534.51" cy="799" fill="#132e65"></circle><circle r="5" cx="564.45" cy="910.51" fill="#132e65"></circle><circle r="5" cx="534.99" cy="1060.25" fill="#132e65"></circle><circle r="5" cx="698.71" cy="-87.59" fill="#132e65"></circle><circle r="5" cx="708.4" cy="58.62" fill="#132e65"></circle><circle r="5" cx="686.87" cy="184.82" fill="#132e65"></circle><circle r="5" cx="668.11" cy="418.67" fill="#132e65"></circle><circle r="5" cx="717.98" cy="593.68" fill="#132e65"></circle><circle r="5" cx="682.14" cy="663.31" fill="#132e65"></circle><circle r="5" cx="711.5" cy="825.85" fill="#132e65"></circle><circle r="5" cx="709.59" cy="944.78" fill="#132e65"></circle><circle r="5" cx="702.74" cy="1079.11" fill="#132e65"></circle><circle r="5" cx="817.8" cy="-74.4" fill="#132e65"></circle><circle r="5" cx="843.67" cy="70.42" fill="#132e65"></circle><circle r="5" cx="805.91" cy="200.69" fill="#132e65"></circle><circle r="5" cx="816.7" cy="434.65" fill="#132e65"></circle><circle r="5" cx="784.54" cy="581.74" fill="#132e65"></circle><circle r="5" cx="815.68" cy="696.03" fill="#132e65"></circle><circle r="5" cx="782.6" cy="795.8" fill="#132e65"></circle><circle r="5" cx="821.94" cy="946.46" fill="#132e65"></circle><circle r="5" cx="783.82" cy="1048.49" fill="#132e65"></circle><circle r="5" cx="950.58" cy="-92.29" fill="#132e65"></circle><circle r="5" cx="929.93" cy="72.02" fill="#132e65"></circle><circle r="5" cx="926.09" cy="195.68" fill="#132e65"></circle><circle r="5" cx="938.45" cy="319.51" fill="#132e65"></circle><circle r="5" cx="954.29" cy="449.29" fill="#132e65"></circle><circle r="5" cx="948.91" cy="563.1" fill="#132e65"></circle><circle r="5" cx="928.43" cy="680.08" fill="#132e65"></circle><circle r="5" cx="959.86" cy="832.66" fill="#132e65"></circle><circle r="5" cx="967.6" cy="936.22" fill="#132e65"></circle><circle r="5" cx="927.26" cy="1037.38" fill="#132e65"></circle><circle r="5" cx="1075.73" cy="-36.39" fill="#132e65"></circle><circle r="5" cx="1075.55" cy="49.42" fill="#132e65"></circle><circle r="5" cx="1080.88" cy="174.79" fill="#132e65"></circle><circle r="5" cx="1086.24" cy="298.2" fill="#132e65"></circle><circle r="5" cx="1060.53" cy="435.01" fill="#132e65"></circle><circle r="5" cx="1039.1" cy="579.43" fill="#132e65"></circle><circle r="5" cx="1055.27" cy="682.27" fill="#132e65"></circle><circle r="5" cx="1033.58" cy="808.45" fill="#132e65"></circle><circle r="5" cx="1065.1" cy="967.15" fill="#132e65"></circle><circle r="5" cx="1051.81" cy="1056.63" fill="#132e65"></circle><path d="M-91.38 923.93L-91.38 923.93" stroke="hsl(228.5, 77.2%, 51.5%)" stroke-width="1.5"></path><path d="M-91.38 923.93L84.74 968.74" stroke="hsl(228.5, 77.2%, 51.5%)" stroke-width="1.5"></path><path d="M-91.38 923.93L71.9 1071.38" stroke="hsl(228.5, 77.2%, 51.5%)" stroke-width="1.5"></path><path d="M-91.38 923.93L211.82 936.72" stroke="hsl(228.5, 77.2%, 51.5%)" stroke-width="1.5"></path><path d="M-91.38 923.93L211.97 832.95" stroke="hsl(228.5, 77.2%, 51.5%)" stroke-width="1.5"></path><path d="M84.74 968.74L84.74 968.74" stroke="hsl(228.5, 77.2%, 51.5%)" stroke-width="1.5"></path><path d="M84.74 968.74L71.9 1071.38" stroke="hsl(228.5, 77.2%, 51.5%)" stroke-width="1.5"></path><path d="M84.74 968.74L211.82 936.72" stroke="hsl(228.5, 77.2%, 51.5%)" stroke-width="1.5"></path><path d="M84.74 968.74L214.4 1035.33" stroke="hsl(228.5, 77.2%, 51.5%)" stroke-width="1.5"></path><path d="M84.74 968.74L211.97 832.95" stroke="hsl(228.5, 77.2%, 51.5%)" stroke-width="1.5"></path><path d="M84.74 968.74L325.84 951.48" stroke="hsl(228.5, 77.2%, 51.5%)" stroke-width="1.5"></path><path d="M214.4 1035.33L214.4 1035.33" stroke="hsl(228.5, 77.2%, 51.5%)" stroke-width="1.5"></path><path d="M214.4 1035.33L211.82 936.72" stroke="hsl(228.5, 77.2%, 51.5%)" stroke-width="1.5"></path><path d="M313.03 1072.81L313.03 1072.81" stroke="hsl(228.5, 77.2%, 51.5%)" stroke-width="1.5"></path><path d="M313.03 1072.81L214.4 1035.33" stroke="hsl(228.5, 77.2%, 51.5%)" stroke-width="1.5"></path><path d="M313.03 1072.81L420.22 1045.15" stroke="hsl(228.5, 77.2%, 51.5%)" stroke-width="1.5"></path><path d="M414.72 814.47L414.72 814.47" stroke="hsl(228.5, 77.2%, 51.5%)" stroke-width="1.5"></path><path d="M414.72 814.47L454.95 913.25" stroke="hsl(228.5, 77.2%, 51.5%)" stroke-width="1.5"></path><path d="M414.72 814.47L560.33 818.26" stroke="hsl(228.5, 77.2%, 51.5%)" stroke-width="1.5"></path><path d="M414.72 814.47L325.84 951.48" stroke="hsl(228.5, 77.2%, 51.5%)" stroke-width="1.5"></path><path d="M414.72 814.47L565.4 929.6" stroke="hsl(228.5, 77.2%, 51.5%)" stroke-width="1.5"></path><path d="M414.72 814.47L211.97 832.95" stroke="hsl(228.5, 77.2%, 51.5%)" stroke-width="1.5"></path><path d="M414.72 814.47L586.23 665.13" stroke="hsl(228.5, 77.2%, 51.5%)" stroke-width="1.5"></path><path d="M454.95 913.25L454.95 913.25" stroke="hsl(228.5, 77.2%, 51.5%)" stroke-width="1.5"></path><path d="M454.95 913.25L565.4 929.6" stroke="hsl(228.5, 77.2%, 51.5%)" stroke-width="1.5"></path><path d="M454.95 913.25L325.84 951.48" stroke="hsl(228.5, 77.2%, 51.5%)" stroke-width="1.5"></path><path d="M711.47 912.41L711.47 912.41" stroke="hsl(228.5, 77.2%, 51.5%)" stroke-width="1.5"></path><path d="M711.47 912.41L800.96 839.8" stroke="hsl(228.5, 77.2%, 51.5%)" stroke-width="1.5"></path><path d="M711.47 912.41L829.91 937.31" stroke="hsl(228.5, 77.2%, 51.5%)" stroke-width="1.5"></path><path d="M711.47 912.41L673.1 794.37" stroke="hsl(228.5, 77.2%, 51.5%)" stroke-width="1.5"></path><path d="M790.03 321.09L790.03 321.09" stroke="hsl(228.5, 77.2%, 51.5%)" stroke-width="1.5"></path><path d="M790.03 321.09L825.33 446.81" stroke="hsl(228.5, 77.2%, 51.5%)" stroke-width="1.5"></path><path d="M825.33 446.81L825.33 446.81" stroke="hsl(228.5, 77.2%, 51.5%)" stroke-width="1.5"></path><path d="M825.33 446.81L819.15 565.52" stroke="hsl(228.5, 77.2%, 51.5%)" stroke-width="1.5"></path><path d="M825.33 446.81L947.63 421.55" stroke="hsl(228.5, 77.2%, 51.5%)" stroke-width="1.5"></path><path d="M825.33 446.81L665.8 458.04" stroke="hsl(228.5, 77.2%, 51.5%)" stroke-width="1.5"></path><path d="M825.33 446.81L681.69 532.87" stroke="hsl(228.5, 77.2%, 51.5%)" stroke-width="1.5"></path><path d="M829.91 937.31L829.91 937.31" stroke="hsl(228.5, 77.2%, 51.5%)" stroke-width="1.5"></path><path d="M829.91 937.31L800.96 839.8" stroke="hsl(228.5, 77.2%, 51.5%)" stroke-width="1.5"></path><path d="M829.91 937.31L945.91 912.16" stroke="hsl(228.5, 77.2%, 51.5%)" stroke-width="1.5"></path><path d="M829.91 937.31L817.58 1074.26" stroke="hsl(228.5, 77.2%, 51.5%)" stroke-width="1.5"></path><path d="M829.91 937.31L910.97 1052.74" stroke="hsl(228.5, 77.2%, 51.5%)" stroke-width="1.5"></path><path d="M829.91 937.31L693.55 1069.53" stroke="hsl(228.5, 77.2%, 51.5%)" stroke-width="1.5"></path><path d="M817.58 1074.26L817.58 1074.26" stroke="hsl(228.5, 77.2%, 51.5%)" stroke-width="1.5"></path><path d="M817.58 1074.26L910.97 1052.74" stroke="hsl(228.5, 77.2%, 51.5%)" stroke-width="1.5"></path><path d="M817.58 1074.26L693.55 1069.53" stroke="hsl(228.5, 77.2%, 51.5%)" stroke-width="1.5"></path><path d="M817.58 1074.26L711.47 912.41" stroke="hsl(228.5, 77.2%, 51.5%)" stroke-width="1.5"></path><path d="M817.58 1074.26L945.91 912.16" stroke="hsl(228.5, 77.2%, 51.5%)" stroke-width="1.5"></path><path d="M1090.2 69.84L1090.2 69.84" stroke="hsl(228.5, 77.2%, 51.5%)" stroke-width="1.5"></path><path d="M1090.2 69.84L936.71 49.03" stroke="hsl(228.5, 77.2%, 51.5%)" stroke-width="1.5"></path><path d="M1090.2 69.84L1039.48 -90.09" stroke="hsl(228.5, 77.2%, 51.5%)" stroke-width="1.5"></path><path d="M1090.2 69.84L938.99 214.95" stroke="hsl(228.5, 77.2%, 51.5%)" stroke-width="1.5"></path><path d="M1038.92 567.02L1038.92 567.02" stroke="hsl(228.5, 77.2%, 51.5%)" stroke-width="1.5"></path><path d="M1038.92 567.02L935.97 581.91" stroke="hsl(228.5, 77.2%, 51.5%)" stroke-width="1.5"></path><path d="M1038.92 567.02L1044.93 453.02" stroke="hsl(228.5, 77.2%, 51.5%)" stroke-width="1.5"></path><path d="M1038.92 567.02L1050.42 712.59" stroke="hsl(228.5, 77.2%, 51.5%)" stroke-width="1.5"></path><path d="M1038.92 567.02L909.37 664.54" stroke="hsl(228.5, 77.2%, 51.5%)" stroke-width="1.5"></path><path d="M1038.92 567.02L947.63 421.55" stroke="hsl(228.5, 77.2%, 51.5%)" stroke-width="1.5"></path><path d="M1038.92 567.02L819.15 565.52" stroke="hsl(228.5, 77.2%, 51.5%)" stroke-width="1.5"></path><path d="M71.9 1071.38L71.9 1071.38" stroke="hsl(228.5, 77.2%, 51.5%)" stroke-width="1.5"></path><path d="M71.9 1071.38L214.4 1035.33" stroke="hsl(228.5, 77.2%, 51.5%)" stroke-width="1.5"></path><path d="M71.9 1071.38L211.82 936.72" stroke="hsl(228.5, 77.2%, 51.5%)" stroke-width="1.5"></path><path d="M71.9 1071.38L313.03 1072.81" stroke="hsl(228.5, 77.2%, 51.5%)" stroke-width="1.5"></path><path d="M71.9 1071.38L211.97 832.95" stroke="hsl(228.5, 77.2%, 51.5%)" stroke-width="1.5"></path><path d="M211.97 832.95L211.97 832.95" stroke="hsl(228.5, 77.2%, 51.5%)" stroke-width="1.5"></path><path d="M211.97 832.95L211.82 936.72" stroke="hsl(228.5, 77.2%, 51.5%)" stroke-width="1.5"></path><path d="M211.97 832.95L325.84 951.48" stroke="hsl(228.5, 77.2%, 51.5%)" stroke-width="1.5"></path><path d="M211.97 832.95L214.4 1035.33" stroke="hsl(228.5, 77.2%, 51.5%)" stroke-width="1.5"></path><path d="M211.97 832.95L454.95 913.25" stroke="hsl(228.5, 77.2%, 51.5%)" stroke-width="1.5"></path><path d="M211.82 936.72L211.82 936.72" stroke="hsl(228.5, 77.2%, 51.5%)" stroke-width="1.5"></path><path d="M211.82 936.72L325.84 951.48" stroke="hsl(228.5, 77.2%, 51.5%)" stroke-width="1.5"></path><path d="M211.82 936.72L313.03 1072.81" stroke="hsl(228.5, 77.2%, 51.5%)" stroke-width="1.5"></path><path d="M325.84 951.48L325.84 951.48" stroke="hsl(228.5, 77.2%, 51.5%)" stroke-width="1.5"></path><path d="M325.84 951.48L313.03 1072.81" stroke="hsl(228.5, 77.2%, 51.5%)" stroke-width="1.5"></path><path d="M325.84 951.48L420.22 1045.15" stroke="hsl(228.5, 77.2%, 51.5%)" stroke-width="1.5"></path><path d="M420.22 1045.15L420.22 1045.15" stroke="hsl(228.5, 77.2%, 51.5%)" stroke-width="1.5"></path><path d="M420.22 1045.15L454.95 913.25" stroke="hsl(228.5, 77.2%, 51.5%)" stroke-width="1.5"></path><path d="M420.22 1045.15L559.48 1053.21" stroke="hsl(228.5, 77.2%, 51.5%)" stroke-width="1.5"></path><path d="M420.22 1045.15L565.4 929.6" stroke="hsl(228.5, 77.2%, 51.5%)" stroke-width="1.5"></path><path d="M586.23 665.13L586.23 665.13" stroke="hsl(228.5, 77.2%, 51.5%)" stroke-width="1.5"></path><path d="M586.23 665.13L712.19 713.38" stroke="hsl(228.5, 77.2%, 51.5%)" stroke-width="1.5"></path><path d="M586.23 665.13L560.33 818.26" stroke="hsl(228.5, 77.2%, 51.5%)" stroke-width="1.5"></path><path d="M560.33 818.26L560.33 818.26" stroke="hsl(228.5, 77.2%, 51.5%)" stroke-width="1.5"></path><path d="M560.33 818.26L565.4 929.6" stroke="hsl(228.5, 77.2%, 51.5%)" stroke-width="1.5"></path><path d="M560.33 818.26L673.1 794.37" stroke="hsl(228.5, 77.2%, 51.5%)" stroke-width="1.5"></path><path d="M560.33 818.26L454.95 913.25" stroke="hsl(228.5, 77.2%, 51.5%)" stroke-width="1.5"></path><path d="M565.4 929.6L565.4 929.6" stroke="hsl(228.5, 77.2%, 51.5%)" stroke-width="1.5"></path><path d="M559.48 1053.21L559.48 1053.21" stroke="hsl(228.5, 77.2%, 51.5%)" stroke-width="1.5"></path><path d="M559.48 1053.21L565.4 929.6" stroke="hsl(228.5, 77.2%, 51.5%)" stroke-width="1.5"></path><path d="M559.48 1053.21L693.55 1069.53" stroke="hsl(228.5, 77.2%, 51.5%)" stroke-width="1.5"></path><path d="M559.48 1053.21L454.95 913.25" stroke="hsl(228.5, 77.2%, 51.5%)" stroke-width="1.5"></path><path d="M665.8 458.04L665.8 458.04" stroke="hsl(228.5, 77.2%, 51.5%)" stroke-width="1.5"></path><path d="M665.8 458.04L681.69 532.87" stroke="hsl(228.5, 77.2%, 51.5%)" stroke-width="1.5"></path><path d="M665.8 458.04L790.03 321.09" stroke="hsl(228.5, 77.2%, 51.5%)" stroke-width="1.5"></path><path d="M681.69 532.87L681.69 532.87" stroke="hsl(228.5, 77.2%, 51.5%)" stroke-width="1.5"></path><path d="M681.69 532.87L819.15 565.52" stroke="hsl(228.5, 77.2%, 51.5%)" stroke-width="1.5"></path><path d="M681.69 532.87L586.23 665.13" stroke="hsl(228.5, 77.2%, 51.5%)" stroke-width="1.5"></path><path d="M712.19 713.38L712.19 713.38" stroke="hsl(228.5, 77.2%, 51.5%)" stroke-width="1.5"></path><path d="M712.19 713.38L798.43 709.09" stroke="hsl(228.5, 77.2%, 51.5%)" stroke-width="1.5"></path><path d="M712.19 713.38L673.1 794.37" stroke="hsl(228.5, 77.2%, 51.5%)" stroke-width="1.5"></path><path d="M673.1 794.37L673.1 794.37" stroke="hsl(228.5, 77.2%, 51.5%)" stroke-width="1.5"></path><path d="M693.55 1069.53L693.55 1069.53" stroke="hsl(228.5, 77.2%, 51.5%)" stroke-width="1.5"></path><path d="M830.67 -88.2L830.67 -88.2" stroke="hsl(228.5, 77.2%, 51.5%)" stroke-width="1.5"></path><path d="M830.67 -88.2L953.99 -91.03" stroke="hsl(228.5, 77.2%, 51.5%)" stroke-width="1.5"></path><path d="M830.67 -88.2L838.8 54.1" stroke="hsl(228.5, 77.2%, 51.5%)" stroke-width="1.5"></path><path d="M830.67 -88.2L936.71 49.03" stroke="hsl(228.5, 77.2%, 51.5%)" stroke-width="1.5"></path><path d="M830.67 -88.2L1039.48 -90.09" stroke="hsl(228.5, 77.2%, 51.5%)" stroke-width="1.5"></path><path d="M830.67 -88.2L840.97 180.21" stroke="hsl(228.5, 77.2%, 51.5%)" stroke-width="1.5"></path><path d="M838.8 54.1L838.8 54.1" stroke="hsl(228.5, 77.2%, 51.5%)" stroke-width="1.5"></path><path d="M838.8 54.1L936.71 49.03" stroke="hsl(228.5, 77.2%, 51.5%)" stroke-width="1.5"></path><path d="M838.8 54.1L840.97 180.21" stroke="hsl(228.5, 77.2%, 51.5%)" stroke-width="1.5"></path><path d="M840.97 180.21L840.97 180.21" stroke="hsl(228.5, 77.2%, 51.5%)" stroke-width="1.5"></path><path d="M840.97 180.21L938.99 214.95" stroke="hsl(228.5, 77.2%, 51.5%)" stroke-width="1.5"></path><path d="M840.97 180.21L790.03 321.09" stroke="hsl(228.5, 77.2%, 51.5%)" stroke-width="1.5"></path><path d="M840.97 180.21L936.71 49.03" stroke="hsl(228.5, 77.2%, 51.5%)" stroke-width="1.5"></path><path d="M840.97 180.21L968.67 328.62" stroke="hsl(228.5, 77.2%, 51.5%)" stroke-width="1.5"></path><path d="M819.15 565.52L819.15 565.52" stroke="hsl(228.5, 77.2%, 51.5%)" stroke-width="1.5"></path><path d="M819.15 565.52L935.97 581.91" stroke="hsl(228.5, 77.2%, 51.5%)" stroke-width="1.5"></path><path d="M819.15 565.52L909.37 664.54" stroke="hsl(228.5, 77.2%, 51.5%)" stroke-width="1.5"></path><path d="M819.15 565.52L798.43 709.09" stroke="hsl(228.5, 77.2%, 51.5%)" stroke-width="1.5"></path><path d="M819.15 565.52L712.19 713.38" stroke="hsl(228.5, 77.2%, 51.5%)" stroke-width="1.5"></path><path d="M798.43 709.09L798.43 709.09" stroke="hsl(228.5, 77.2%, 51.5%)" stroke-width="1.5"></path><path d="M798.43 709.09L909.37 664.54" stroke="hsl(228.5, 77.2%, 51.5%)" stroke-width="1.5"></path><path d="M798.43 709.09L800.96 839.8" stroke="hsl(228.5, 77.2%, 51.5%)" stroke-width="1.5"></path><path d="M800.96 839.8L800.96 839.8" stroke="hsl(228.5, 77.2%, 51.5%)" stroke-width="1.5"></path><path d="M953.99 -91.03L953.99 -91.03" stroke="hsl(228.5, 77.2%, 51.5%)" stroke-width="1.5"></path><path d="M953.99 -91.03L1039.48 -90.09" stroke="hsl(228.5, 77.2%, 51.5%)" stroke-width="1.5"></path><path d="M953.99 -91.03L936.71 49.03" stroke="hsl(228.5, 77.2%, 51.5%)" stroke-width="1.5"></path><path d="M936.71 49.03L936.71 49.03" stroke="hsl(228.5, 77.2%, 51.5%)" stroke-width="1.5"></path><path d="M938.99 214.95L938.99 214.95" stroke="hsl(228.5, 77.2%, 51.5%)" stroke-width="1.5"></path><path d="M938.99 214.95L968.67 328.62" stroke="hsl(228.5, 77.2%, 51.5%)" stroke-width="1.5"></path><path d="M938.99 214.95L1034.38 329.71" stroke="hsl(228.5, 77.2%, 51.5%)" stroke-width="1.5"></path><path d="M938.99 214.95L936.71 49.03" stroke="hsl(228.5, 77.2%, 51.5%)" stroke-width="1.5"></path><path d="M938.99 214.95L790.03 321.09" stroke="hsl(228.5, 77.2%, 51.5%)" stroke-width="1.5"></path><path d="M968.67 328.62L968.67 328.62" stroke="hsl(228.5, 77.2%, 51.5%)" stroke-width="1.5"></path><path d="M968.67 328.62L1034.38 329.71" stroke="hsl(228.5, 77.2%, 51.5%)" stroke-width="1.5"></path><path d="M947.63 421.55L947.63 421.55" stroke="hsl(228.5, 77.2%, 51.5%)" stroke-width="1.5"></path><path d="M947.63 421.55L968.67 328.62" stroke="hsl(228.5, 77.2%, 51.5%)" stroke-width="1.5"></path><path d="M947.63 421.55L1044.93 453.02" stroke="hsl(228.5, 77.2%, 51.5%)" stroke-width="1.5"></path><path d="M935.97 581.91L935.97 581.91" stroke="hsl(228.5, 77.2%, 51.5%)" stroke-width="1.5"></path><path d="M935.97 581.91L909.37 664.54" stroke="hsl(228.5, 77.2%, 51.5%)" stroke-width="1.5"></path><path d="M935.97 581.91L947.63 421.55" stroke="hsl(228.5, 77.2%, 51.5%)" stroke-width="1.5"></path><path d="M935.97 581.91L1044.93 453.02" stroke="hsl(228.5, 77.2%, 51.5%)" stroke-width="1.5"></path><path d="M909.37 664.54L909.37 664.54" stroke="hsl(228.5, 77.2%, 51.5%)" stroke-width="1.5"></path><path d="M909.37 664.54L1050.42 712.59" stroke="hsl(228.5, 77.2%, 51.5%)" stroke-width="1.5"></path><path d="M945.91 912.16L945.91 912.16" stroke="hsl(228.5, 77.2%, 51.5%)" stroke-width="1.5"></path><path d="M945.91 912.16L1035.42 840.66" stroke="hsl(228.5, 77.2%, 51.5%)" stroke-width="1.5"></path><path d="M910.97 1052.74L910.97 1052.74" stroke="hsl(228.5, 77.2%, 51.5%)" stroke-width="1.5"></path><path d="M910.97 1052.74L945.91 912.16" stroke="hsl(228.5, 77.2%, 51.5%)" stroke-width="1.5"></path><path d="M910.97 1052.74L1071.93 1048.67" stroke="hsl(228.5, 77.2%, 51.5%)" stroke-width="1.5"></path><path d="M1039.48 -90.09L1039.48 -90.09" stroke="hsl(228.5, 77.2%, 51.5%)" stroke-width="1.5"></path><path d="M1039.48 -90.09L936.71 49.03" stroke="hsl(228.5, 77.2%, 51.5%)" stroke-width="1.5"></path><path d="M1039.48 -90.09L838.8 54.1" stroke="hsl(228.5, 77.2%, 51.5%)" stroke-width="1.5"></path><path d="M1039.48 -90.09L938.99 214.95" stroke="hsl(228.5, 77.2%, 51.5%)" stroke-width="1.5"></path><path d="M1034.38 329.71L1034.38 329.71" stroke="hsl(228.5, 77.2%, 51.5%)" stroke-width="1.5"></path><path d="M1044.93 453.02L1044.93 453.02" stroke="hsl(228.5, 77.2%, 51.5%)" stroke-width="1.5"></path><path d="M1044.93 453.02L1034.38 329.71" stroke="hsl(228.5, 77.2%, 51.5%)" stroke-width="1.5"></path><path d="M1044.93 453.02L968.67 328.62" stroke="hsl(228.5, 77.2%, 51.5%)" stroke-width="1.5"></path><path d="M1050.42 712.59L1050.42 712.59" stroke="hsl(228.5, 77.2%, 51.5%)" stroke-width="1.5"></path><path d="M1050.42 712.59L1035.42 840.66" stroke="hsl(228.5, 77.2%, 51.5%)" stroke-width="1.5"></path><path d="M1050.42 712.59L935.97 581.91" stroke="hsl(228.5, 77.2%, 51.5%)" stroke-width="1.5"></path><path d="M1050.42 712.59L945.91 912.16" stroke="hsl(228.5, 77.2%, 51.5%)" stroke-width="1.5"></path><path d="M1050.42 712.59L1069.79 943.1" stroke="hsl(228.5, 77.2%, 51.5%)" stroke-width="1.5"></path><path d="M1035.42 840.66L1035.42 840.66" stroke="hsl(228.5, 77.2%, 51.5%)" stroke-width="1.5"></path><path d="M1035.42 840.66L1069.79 943.1" stroke="hsl(228.5, 77.2%, 51.5%)" stroke-width="1.5"></path><path d="M1035.42 840.66L1071.93 1048.67" stroke="hsl(228.5, 77.2%, 51.5%)" stroke-width="1.5"></path><path d="M1069.79 943.1L1069.79 943.1" stroke="hsl(228.5, 77.2%, 51.5%)" stroke-width="1.5"></path><path d="M1069.79 943.1L1071.93 1048.67" stroke="hsl(228.5, 77.2%, 51.5%)" stroke-width="1.5"></path><path d="M1069.79 943.1L945.91 912.16" stroke="hsl(228.5, 77.2%, 51.5%)" stroke-width="1.5"></path><path d="M1071.93 1048.67L1071.93 1048.67" stroke="hsl(228.5, 77.2%, 51.5%)" stroke-width="1.5"></path><path d="M1071.93 1048.67L945.91 912.16" stroke="hsl(228.5, 77.2%, 51.5%)" stroke-width="1.5"></path><circle r="25" cx="-91.38" cy="923.93" fill="url(#SvgjsRadialGradient1009)"></circle><circle r="25" cx="84.74" cy="968.74" fill="url(#SvgjsRadialGradient1009)"></circle><circle r="25" cx="214.4" cy="1035.33" fill="url(#SvgjsRadialGradient1009)"></circle><circle r="25" cx="313.03" cy="1072.81" fill="url(#SvgjsRadialGradient1009)"></circle><circle r="25" cx="414.72" cy="814.47" fill="url(#SvgjsRadialGradient1009)"></circle><circle r="25" cx="454.95" cy="913.25" fill="url(#SvgjsRadialGradient1009)"></circle><circle r="25" cx="711.47" cy="912.41" fill="url(#SvgjsRadialGradient1009)"></circle><circle r="25" cx="790.03" cy="321.09" fill="url(#SvgjsRadialGradient1009)"></circle><circle r="25" cx="825.33" cy="446.81" fill="url(#SvgjsRadialGradient1009)"></circle><circle r="25" cx="829.91" cy="937.31" fill="url(#SvgjsRadialGradient1009)"></circle><circle r="25" cx="817.58" cy="1074.26" fill="url(#SvgjsRadialGradient1009)"></circle><circle r="25" cx="1090.2" cy="69.84" fill="url(#SvgjsRadialGradient1009)"></circle><circle r="25" cx="1038.92" cy="567.02" fill="url(#SvgjsRadialGradient1009)"></circle><circle r="5" cx="71.9" cy="1071.38" fill="#8b9ad9"></circle><circle r="5" cx="211.97" cy="832.95" fill="#8b9ad9"></circle><circle r="5" cx="211.82" cy="936.72" fill="#8b9ad9"></circle><circle r="5" cx="325.84" cy="951.48" fill="#8b9ad9"></circle><circle r="5" cx="420.22" cy="1045.15" fill="#8b9ad9"></circle><circle r="5" cx="586.23" cy="665.13" fill="#8b9ad9"></circle><circle r="5" cx="560.33" cy="818.26" fill="#8b9ad9"></circle><circle r="5" cx="565.4" cy="929.6" fill="#8b9ad9"></circle><circle r="5" cx="559.48" cy="1053.21" fill="#8b9ad9"></circle><circle r="5" cx="665.8" cy="458.04" fill="#8b9ad9"></circle><circle r="5" cx="681.69" cy="532.87" fill="#8b9ad9"></circle><circle r="5" cx="712.19" cy="713.38" fill="#8b9ad9"></circle><circle r="5" cx="673.1" cy="794.37" fill="#8b9ad9"></circle><circle r="5" cx="693.55" cy="1069.53" fill="#8b9ad9"></circle><circle r="5" cx="830.67" cy="-88.2" fill="#8b9ad9"></circle><circle r="5" cx="838.8" cy="54.1" fill="#8b9ad9"></circle><circle r="5" cx="840.97" cy="180.21" fill="#8b9ad9"></circle><circle r="5" cx="819.15" cy="565.52" fill="#8b9ad9"></circle><circle r="5" cx="798.43" cy="709.09" fill="#8b9ad9"></circle><circle r="5" cx="800.96" cy="839.8" fill="#8b9ad9"></circle><circle r="5" cx="953.99" cy="-91.03" fill="#8b9ad9"></circle><circle r="5" cx="936.71" cy="49.03" fill="#8b9ad9"></circle><circle r="5" cx="938.99" cy="214.95" fill="#8b9ad9"></circle><circle r="5" cx="968.67" cy="328.62" fill="#8b9ad9"></circle><circle r="5" cx="947.63" cy="421.55" fill="#8b9ad9"></circle><circle r="5" cx="935.97" cy="581.91" fill="#8b9ad9"></circle><circle r="5" cx="909.37" cy="664.54" fill="#8b9ad9"></circle><circle r="5" cx="945.91" cy="912.16" fill="#8b9ad9"></circle><circle r="5" cx="910.97" cy="1052.74" fill="#8b9ad9"></circle><circle r="5" cx="1039.48" cy="-90.09" fill="#8b9ad9"></circle><circle r="5" cx="1034.38" cy="329.71" fill="#8b9ad9"></circle><circle r="5" cx="1044.93" cy="453.02" fill="#8b9ad9"></circle><circle r="5" cx="1050.42" cy="712.59" fill="#8b9ad9"></circle><circle r="5" cx="1035.42" cy="840.66" fill="#8b9ad9"></circle><circle r="5" cx="1069.79" cy="943.1" fill="#8b9ad9"></circle><circle r="5" cx="1071.93" cy="1048.67" fill="#8b9ad9"></circle></g><defs><mask id="SvgjsMask1008"><rect width="1000" height="1000" fill="#ffffff"></rect></mask><radialGradient id="SvgjsRadialGradient1009"><stop stop-color="#ffffff" offset="0.1"></stop><stop stop-color="#1735b3" offset="0.2"></stop><stop stop-color="rgba(23, 53, 179, 0)" offset="1"></stop></radialGradient></defs></svg>